# xmcd
#
# Track frame offsets: 
#        150
#        13719
#        25231
#        36698
#        51672
#        67155
#        78671
#        91203
#        103754
#        117872
#        131314
#        142821
#        157037
#        171820
#        185843
#        198852
#        211134
#        223364
#        234795
#        245536
#        259285
#        274067
#        289201
#        304281
#
# Disc length: 4240 seconds
#
# Revision: 0
# Processed by: cddbd v1.5.1PL0 Copyright (c) Steve Scherf et al.
# Submitted via: ExactAudioCopy v0.95a5
#
DISCID=72108e18
DTITLE=Fisk University Jubilee Singers - Complete Recordings Vol. 2: 1
DTITLE=915-1920
DYEAR=1900
DGENRE=
TTITLE0=Steal Away to Jesus
TTITLE1=Shout All Over God's Heaven
TTITLE2=Little David Play on Your Harp
TTITLE3=There Is a Light Shining for Me
TTITLE4=Swing Low, Sweet Chariot
TTITLE5=In the Great Gettin' Up Mawnin'
TTITLE6=River of Jordan
TTITLE7=O Mary Don't You Weep Don't You Mourn
TTITLE8=Couldn't Hear Nobody Pray
TTITLE9=The Great Camp Meeting
TTITLE10=Brethren Rise!
TTITLE11=Good News, the Chariot's Coming
TTITLE12=Most Done Traveling
TTITLE13=Oh! Reign Massa Jesus Reign
TTITLE14=I Know I Have Another Building
TTITLE15=I Want to Be Ready
TTITLE16=Roll Jordan Roll
TTITLE17=I Know the Lord Laid His Hand on Me
TTITLE18=Ezekiel Saw de Wheel
TTITLE19=You're Going to Reap Just What You Sow
TTITLE20=Give 'Way Jordon
TTITLE21=You Hear the Lambs A-Cryin'
TTITLE22=I Ain't Going to Study War No More
TTITLE23=My Soul Is a Witness for My Lord
EXTD=
EXTT0=
EXTT1=
EXTT2=
EXTT3=
EXTT4=
EXTT5=
EXTT6=
EXTT7=
EXTT8=
EXTT9=
EXTT10=
EXTT11=
EXTT12=
EXTT13=
EXTT14=
EXTT15=
EXTT16=
EXTT17=
EXTT18=
EXTT19=
EXTT20=
EXTT21=
EXTT22=
EXTT23=
PLAYORDER=
